<?xml version="1.0" encoding="UTF-8" standalone="no"?>
<!DOCTYPE svg PUBLIC "-//W3C//DTD SVG 1.1//EN"
 "http://www.w3.org/Graphics/SVG/1.1/DTD/svg11.dtd">
<!-- Generated by graphviz version 2.49.2 (20211016.1639)
 -->
<!-- Title: pipeline_dag_20211018_221814 Pages: 1 -->
<svg width="1365pt" height="958pt"
 viewBox="0.00 0.00 1365.23 958.40" xmlns="http://www.w3.org/2000/svg" xmlns:xlink="http://www.w3.org/1999/xlink">
<g id="graph0" class="graph" transform="scale(1 1) rotate(0) translate(4 954.4)">
<title>pipeline_dag_20211018_221814</title>
<polygon fill="white" stroke="transparent" points="-4,4 -4,-954.4 1361.23,-954.4 1361.23,4 -4,4"/>
<!-- p0 -->
<g id="node1" class="node">
<title>p0</title>
<ellipse fill="black" stroke="black" cx="223.6" cy="-611" rx="3.6" ry="3.6"/>
<text text-anchor="middle" x="177" y="-618.4" font-family="Times,serif" font-size="14.00">Channel.empty</text>
</g>
<!-- p23 -->
<g id="node2" class="node">
<title>p23</title>
<ellipse fill="none" stroke="black" cx="223.6" cy="-538.4" rx="3.5" ry="3.5"/>
<text text-anchor="middle" x="201.1" y="-545.7" font-family="Times,serif" font-size="14.00">collect</text>
</g>
<!-- p0&#45;&gt;p23 -->
<g id="edge1" class="edge">
<title>p0&#45;&gt;p23</title>
<path fill="none" stroke="black" d="M223.6,-607.32C223.6,-598.41 223.6,-569.38 223.6,-552.29"/>
<polygon fill="black" stroke="black" points="227.1,-552.08 223.6,-542.08 220.1,-552.08 227.1,-552.08"/>
<text text-anchor="middle" x="300.1" y="-563.8" font-family="Times,serif" font-size="14.00">ch_multiqc_custom_config</text>
</g>
<!-- p24 -->
<g id="node27" class="node">
<title>p24</title>
<ellipse fill="none" stroke="black" cx="223.6" cy="-480.2" rx="3.5" ry="3.5"/>
<text text-anchor="middle" x="197.1" y="-487.5" font-family="Times,serif" font-size="14.00">ifEmpty</text>
</g>
<!-- p23&#45;&gt;p24 -->
<g id="edge23" class="edge">
<title>p23&#45;&gt;p24</title>
<path fill="none" stroke="black" d="M223.6,-534.69C223.6,-527.44 223.6,-507.28 223.6,-493.88"/>
<polygon fill="black" stroke="black" points="227.1,-493.75 223.6,-483.75 220.1,-493.75 227.1,-493.75"/>
</g>
<!-- p1 -->
<g id="node3" class="node">
<title>p1</title>
<ellipse fill="black" stroke="black" cx="743.6" cy="-931.8" rx="3.6" ry="3.6"/>
<text text-anchor="middle" x="697" y="-939.2" font-family="Times,serif" font-size="14.00">Channel.empty</text>
</g>
<!-- p11 -->
<g id="node4" class="node">
<title>p11</title>
<ellipse fill="none" stroke="black" cx="743.6" cy="-873.6" rx="3.5" ry="3.5"/>
<text text-anchor="middle" x="727.6" y="-880.9" font-family="Times,serif" font-size="14.00">map</text>
</g>
<!-- p1&#45;&gt;p11 -->
<g id="edge2" class="edge">
<title>p1&#45;&gt;p11</title>
<path fill="none" stroke="black" d="M743.6,-928.09C743.6,-920.84 743.6,-900.68 743.6,-887.28"/>
<polygon fill="black" stroke="black" points="747.1,-887.15 743.6,-877.15 740.1,-887.15 747.1,-887.15"/>
<text text-anchor="middle" x="805.1" y="-899" font-family="Times,serif" font-size="14.00">ch_software_versions</text>
</g>
<!-- p12 -->
<g id="node14" class="node">
<title>p12</title>
<ellipse fill="none" stroke="black" cx="743.6" cy="-801" rx="3.5" ry="3.5"/>
<text text-anchor="middle" x="707.6" y="-808.3" font-family="Times,serif" font-size="14.00">groupTuple</text>
</g>
<!-- p11&#45;&gt;p12 -->
<g id="edge11" class="edge">
<title>p11&#45;&gt;p12</title>
<path fill="none" stroke="black" d="M743.6,-869.92C743.6,-861.01 743.6,-831.98 743.6,-814.89"/>
<polygon fill="black" stroke="black" points="747.1,-814.68 743.6,-804.68 740.1,-814.68 747.1,-814.68"/>
</g>
<!-- p2 -->
<g id="node5" class="node">
<title>p2</title>
<ellipse fill="black" stroke="black" cx="1047.6" cy="-931.8" rx="3.6" ry="3.6"/>
<text text-anchor="middle" x="994" y="-939.2" font-family="Times,serif" font-size="14.00">Channel.fromList</text>
</g>
<!-- p3 -->
<g id="node6" class="node">
<title>p3</title>
<ellipse fill="none" stroke="black" cx="1047.6" cy="-873.6" rx="3.5" ry="3.5"/>
<text text-anchor="middle" x="1031.6" y="-880.9" font-family="Times,serif" font-size="14.00">map</text>
</g>
<!-- p2&#45;&gt;p3 -->
<g id="edge3" class="edge">
<title>p2&#45;&gt;p3</title>
<path fill="none" stroke="black" d="M1047.6,-928.09C1047.6,-920.84 1047.6,-900.68 1047.6,-887.28"/>
<polygon fill="black" stroke="black" points="1051.1,-887.15 1047.6,-877.15 1044.1,-887.15 1051.1,-887.15"/>
</g>
<!-- p5 -->
<g id="node7" class="node">
<title>p5</title>
<ellipse fill="none" stroke="black" cx="1083.6" cy="-801" rx="272.15" ry="18"/>
<text text-anchor="middle" x="1083.6" y="-797.3" font-family="Times,serif" font-size="14.00">NFCORE_GEOTOFASTQ:GEOTOFASTQ:SRA_IDS_TO_RUNINFO</text>
</g>
<!-- p3&#45;&gt;p5 -->
<g id="edge4" class="edge">
<title>p3&#45;&gt;p5</title>
<path fill="none" stroke="black" d="M1047.02,-869.87C1045.85,-863.7 1043.71,-848.36 1048.6,-837 1050.12,-833.48 1052.17,-830.12 1054.52,-826.98"/>
<polygon fill="black" stroke="black" points="1057.37,-829.03 1061.3,-819.19 1052.09,-824.44 1057.37,-829.03"/>
<text text-anchor="middle" x="1073.1" y="-840.8" font-family="Times,serif" font-size="14.00">ch_input</text>
</g>
<!-- p6 -->
<g id="node9" class="node">
<title>p6</title>
<ellipse fill="none" stroke="black" cx="1083.6" cy="-728" rx="273.75" ry="18"/>
<text text-anchor="middle" x="1083.6" y="-724.3" font-family="Times,serif" font-size="14.00">NFCORE_GEOTOFASTQ:GEOTOFASTQ:SRA_RUNINFO_TO_FTP</text>
</g>
<!-- p5&#45;&gt;p6 -->
<g id="edge6" class="edge">
<title>p5&#45;&gt;p6</title>
<path fill="none" stroke="black" d="M1083.6,-782.81C1083.6,-774.79 1083.6,-765.05 1083.6,-756.07"/>
<polygon fill="black" stroke="black" points="1087.1,-756.03 1083.6,-746.03 1080.1,-756.03 1087.1,-756.03"/>
</g>
<!-- p4 -->
<g id="node8" class="node">
<title>p4</title>
<ellipse fill="black" stroke="black" cx="1119.6" cy="-873.6" rx="3.6" ry="3.6"/>
</g>
<!-- p4&#45;&gt;p5 -->
<g id="edge5" class="edge">
<title>p4&#45;&gt;p5</title>
<path fill="none" stroke="black" d="M1118.23,-869.92C1114.73,-863.05 1105.15,-844.26 1096.95,-828.17"/>
<polygon fill="black" stroke="black" points="1099.99,-826.45 1092.33,-819.13 1093.76,-829.63 1099.99,-826.45"/>
<text text-anchor="middle" x="1125.1" y="-840.8" font-family="Times,serif" font-size="14.00">fields</text>
</g>
<!-- p8 -->
<g id="node10" class="node">
<title>p8</title>
<ellipse fill="none" stroke="black" cx="1061.6" cy="-669.5" rx="3.5" ry="3.5"/>
<text text-anchor="middle" x="1039.1" y="-676.8" font-family="Times,serif" font-size="14.00">collect</text>
</g>
<!-- p6&#45;&gt;p8 -->
<g id="edge7" class="edge">
<title>p6&#45;&gt;p8</title>
<path fill="none" stroke="black" d="M1076.88,-709.74C1073.46,-700.95 1069.38,-690.47 1066.3,-682.56"/>
<polygon fill="black" stroke="black" points="1069.49,-681.11 1062.6,-673.06 1062.96,-683.65 1069.49,-681.11"/>
</g>
<!-- p7 -->
<g id="node11" class="node">
<title>p7</title>
<ellipse fill="black" stroke="black" cx="1086.6" cy="-669.5" rx="1.8" ry="1.8"/>
</g>
<!-- p6&#45;&gt;p7 -->
<g id="edge8" class="edge">
<title>p6&#45;&gt;p7</title>
<path fill="none" stroke="black" d="M1084.52,-709.74C1085,-700.65 1085.58,-689.77 1086,-681.77"/>
<polygon fill="black" stroke="black" points="1089.51,-681.68 1086.55,-671.5 1082.52,-681.3 1089.51,-681.68"/>
</g>
<!-- p9 -->
<g id="node12" class="node">
<title>p9</title>
<ellipse fill="none" stroke="black" cx="1061.6" cy="-611" rx="227.46" ry="18"/>
<text text-anchor="middle" x="1061.6" y="-607.3" font-family="Times,serif" font-size="14.00">NFCORE_GEOTOFASTQ:GEOTOFASTQ:MERGE_TSV</text>
</g>
<!-- p8&#45;&gt;p9 -->
<g id="edge9" class="edge">
<title>p8&#45;&gt;p9</title>
<path fill="none" stroke="black" d="M1061.6,-665.77C1061.6,-660.83 1061.6,-649.9 1061.6,-639.17"/>
<polygon fill="black" stroke="black" points="1065.1,-639.15 1061.6,-629.15 1058.1,-639.15 1065.1,-639.15"/>
</g>
<!-- p10 -->
<g id="node13" class="node">
<title>p10</title>
<ellipse fill="black" stroke="black" cx="1061.6" cy="-538.4" rx="1.8" ry="1.8"/>
</g>
<!-- p9&#45;&gt;p10 -->
<g id="edge10" class="edge">
<title>p9&#45;&gt;p10</title>
<path fill="none" stroke="black" d="M1061.6,-592.91C1061.6,-579.74 1061.6,-561.92 1061.6,-550.54"/>
<polygon fill="black" stroke="black" points="1065.1,-550.22 1061.6,-540.22 1058.1,-550.22 1065.1,-550.22"/>
</g>
<!-- p13 -->
<g id="node15" class="node">
<title>p13</title>
<ellipse fill="none" stroke="black" cx="743.6" cy="-728" rx="3.5" ry="3.5"/>
<text text-anchor="middle" x="727.6" y="-735.3" font-family="Times,serif" font-size="14.00">map</text>
</g>
<!-- p12&#45;&gt;p13 -->
<g id="edge12" class="edge">
<title>p12&#45;&gt;p13</title>
<path fill="none" stroke="black" d="M743.6,-797.3C743.6,-788.3 743.6,-758.86 743.6,-741.71"/>
<polygon fill="black" stroke="black" points="747.1,-741.7 743.6,-731.7 740.1,-741.7 747.1,-741.7"/>
</g>
<!-- p14 -->
<g id="node16" class="node">
<title>p14</title>
<ellipse fill="none" stroke="black" cx="743.6" cy="-669.5" rx="3.5" ry="3.5"/>
<text text-anchor="middle" x="722.6" y="-676.8" font-family="Times,serif" font-size="14.00">flatten</text>
</g>
<!-- p13&#45;&gt;p14 -->
<g id="edge13" class="edge">
<title>p13&#45;&gt;p14</title>
<path fill="none" stroke="black" d="M743.6,-724.27C743.6,-716.99 743.6,-696.71 743.6,-683.25"/>
<polygon fill="black" stroke="black" points="747.1,-683.07 743.6,-673.07 740.1,-683.07 747.1,-683.07"/>
</g>
<!-- p15 -->
<g id="node17" class="node">
<title>p15</title>
<ellipse fill="none" stroke="black" cx="743.6" cy="-611" rx="3.5" ry="3.5"/>
<text text-anchor="middle" x="721.1" y="-618.3" font-family="Times,serif" font-size="14.00">collect</text>
</g>
<!-- p14&#45;&gt;p15 -->
<g id="edge14" class="edge">
<title>p14&#45;&gt;p15</title>
<path fill="none" stroke="black" d="M743.6,-665.77C743.6,-658.49 743.6,-638.21 743.6,-624.75"/>
<polygon fill="black" stroke="black" points="747.1,-624.57 743.6,-614.57 740.1,-624.57 747.1,-624.57"/>
</g>
<!-- p16 -->
<g id="node18" class="node">
<title>p16</title>
<ellipse fill="none" stroke="black" cx="669.6" cy="-538.4" rx="3.5" ry="3.5"/>
<text text-anchor="middle" x="653.6" y="-545.7" font-family="Times,serif" font-size="14.00">map</text>
</g>
<!-- p15&#45;&gt;p16 -->
<g id="edge15" class="edge">
<title>p15&#45;&gt;p16</title>
<path fill="none" stroke="black" d="M741.47,-607.96C732.35,-599.26 696.35,-564.92 679.02,-548.39"/>
<polygon fill="black" stroke="black" points="681.25,-545.68 671.6,-541.31 676.42,-550.75 681.25,-545.68"/>
<text text-anchor="middle" x="768.1" y="-563.8" font-family="Times,serif" font-size="14.00">ch_software_versions</text>
</g>
<!-- p38 -->
<g id="node39" class="node">
<title>p38</title>
<ellipse fill="none" stroke="black" cx="886.6" cy="-58.1" rx="3.5" ry="3.5"/>
<text text-anchor="middle" x="872.1" y="-65.4" font-family="Times,serif" font-size="14.00">mix</text>
</g>
<!-- p15&#45;&gt;p38 -->
<g id="edge38" class="edge">
<title>p15&#45;&gt;p38</title>
<path fill="none" stroke="black" d="M746.81,-609.4C770.03,-604.99 911.6,-576.57 911.6,-539.4 911.6,-539.4 911.6,-539.4 911.6,-101.1 911.6,-88.41 903.07,-76.22 895.98,-68.27"/>
<polygon fill="black" stroke="black" points="898.43,-65.77 888.91,-61.11 893.45,-70.69 898.43,-65.77"/>
<text text-anchor="middle" x="973.1" y="-302.4" font-family="Times,serif" font-size="14.00">ch_software_versions</text>
</g>
<!-- p17 -->
<g id="node19" class="node">
<title>p17</title>
<ellipse fill="none" stroke="black" cx="607.6" cy="-480.2" rx="3.5" ry="3.5"/>
<text text-anchor="middle" x="585.1" y="-487.5" font-family="Times,serif" font-size="14.00">collect</text>
</g>
<!-- p16&#45;&gt;p17 -->
<g id="edge16" class="edge">
<title>p16&#45;&gt;p17</title>
<path fill="none" stroke="black" d="M667.54,-535.53C659.82,-528.53 632.3,-503.59 617.38,-490.07"/>
<polygon fill="black" stroke="black" points="619.49,-487.26 609.73,-483.13 614.79,-492.44 619.49,-487.26"/>
</g>
<!-- p18 -->
<g id="node20" class="node">
<title>p18</title>
<ellipse fill="none" stroke="black" cx="590.6" cy="-407.6" rx="293.25" ry="18"/>
<text text-anchor="middle" x="590.6" y="-403.9" font-family="Times,serif" font-size="14.00">NFCORE_GEOTOFASTQ:GEOTOFASTQ:GET_SOFTWARE_VERSIONS</text>
</g>
<!-- p17&#45;&gt;p18 -->
<g id="edge17" class="edge">
<title>p17&#45;&gt;p18</title>
<path fill="none" stroke="black" d="M606.95,-476.52C605.33,-469.78 600.94,-451.55 597.12,-435.68"/>
<polygon fill="black" stroke="black" points="600.47,-434.63 594.72,-425.73 593.66,-436.27 600.47,-434.63"/>
</g>
<!-- p19 -->
<g id="node21" class="node">
<title>p19</title>
<ellipse fill="black" stroke="black" cx="593.6" cy="-335.1" rx="1.8" ry="1.8"/>
</g>
<!-- p18&#45;&gt;p19 -->
<g id="edge18" class="edge">
<title>p18&#45;&gt;p19</title>
<path fill="none" stroke="black" d="M591.33,-389.53C591.89,-376.39 592.64,-358.59 593.13,-347.23"/>
<polygon fill="black" stroke="black" points="596.64,-347.06 593.57,-336.92 589.64,-346.76 596.64,-347.06"/>
</g>
<!-- p29 -->
<g id="node22" class="node">
<title>p29</title>
<ellipse fill="none" stroke="black" cx="568.6" cy="-335.1" rx="3.5" ry="3.5"/>
<text text-anchor="middle" x="546.1" y="-342.4" font-family="Times,serif" font-size="14.00">collect</text>
</g>
<!-- p18&#45;&gt;p29 -->
<g id="edge19" class="edge">
<title>p18&#45;&gt;p29</title>
<path fill="none" stroke="black" d="M585.27,-389.53C581.31,-376.84 576,-359.83 572.45,-348.44"/>
<polygon fill="black" stroke="black" points="575.75,-347.26 569.43,-338.76 569.07,-349.35 575.75,-347.26"/>
</g>
<!-- p30 -->
<g id="node31" class="node">
<title>p30</title>
<ellipse fill="none" stroke="black" cx="568.6" cy="-277.1" rx="3.5" ry="3.5"/>
<text text-anchor="middle" x="554.1" y="-284.4" font-family="Times,serif" font-size="14.00">mix</text>
</g>
<!-- p29&#45;&gt;p30 -->
<g id="edge29" class="edge">
<title>p29&#45;&gt;p30</title>
<path fill="none" stroke="black" d="M568.6,-331.4C568.6,-324.18 568.6,-304.08 568.6,-290.73"/>
<polygon fill="black" stroke="black" points="572.1,-290.64 568.6,-280.64 565.1,-290.64 572.1,-290.64"/>
</g>
<!-- p20 -->
<g id="node23" class="node">
<title>p20</title>
<ellipse fill="black" stroke="black" cx="114.6" cy="-538.4" rx="3.6" ry="3.6"/>
<text text-anchor="middle" x="68" y="-545.8" font-family="Times,serif" font-size="14.00">Channel.empty</text>
</g>
<!-- p22 -->
<g id="node24" class="node">
<title>p22</title>
<ellipse fill="none" stroke="black" cx="114.6" cy="-480.2" rx="3.5" ry="3.5"/>
<text text-anchor="middle" x="100.1" y="-487.5" font-family="Times,serif" font-size="14.00">mix</text>
</g>
<!-- p20&#45;&gt;p22 -->
<g id="edge20" class="edge">
<title>p20&#45;&gt;p22</title>
<path fill="none" stroke="black" d="M114.6,-534.69C114.6,-527.44 114.6,-507.28 114.6,-493.88"/>
<polygon fill="black" stroke="black" points="118.1,-493.75 114.6,-483.75 111.1,-493.75 118.1,-493.75"/>
<text text-anchor="middle" x="161.6" y="-505.6" font-family="Times,serif" font-size="14.00">ch_multiqc_files</text>
</g>
<!-- p25 -->
<g id="node26" class="node">
<title>p25</title>
<ellipse fill="none" stroke="black" cx="185.6" cy="-407.6" rx="3.5" ry="3.5"/>
<text text-anchor="middle" x="171.1" y="-414.9" font-family="Times,serif" font-size="14.00">mix</text>
</g>
<!-- p22&#45;&gt;p25 -->
<g id="edge22" class="edge">
<title>p22&#45;&gt;p25</title>
<path fill="none" stroke="black" d="M113.44,-476.71C110.76,-470.55 104.83,-454.29 111.6,-443.6 124.94,-422.54 154.74,-413.91 172.19,-410.56"/>
<polygon fill="black" stroke="black" points="172.96,-413.98 182.29,-408.95 171.86,-407.07 172.96,-413.98"/>
<text text-anchor="middle" x="158.6" y="-447.4" font-family="Times,serif" font-size="14.00">ch_multiqc_files</text>
</g>
<!-- p21 -->
<g id="node25" class="node">
<title>p21</title>
<ellipse fill="black" stroke="black" cx="81.6" cy="-538.4" rx="3.6" ry="3.6"/>
<text text-anchor="middle" x="39" y="-523.6" font-family="Times,serif" font-size="14.00">Channel.from</text>
</g>
<!-- p21&#45;&gt;p22 -->
<g id="edge21" class="edge">
<title>p21&#45;&gt;p22</title>
<path fill="none" stroke="black" d="M83.02,-534.99C87.26,-527.76 100.04,-505.99 107.98,-492.47"/>
<polygon fill="black" stroke="black" points="111.18,-493.94 113.22,-483.54 105.14,-490.39 111.18,-493.94"/>
</g>
<!-- p28 -->
<g id="node28" class="node">
<title>p28</title>
<ellipse fill="none" stroke="black" cx="294.6" cy="-335.1" rx="3.5" ry="3.5"/>
<text text-anchor="middle" x="280.1" y="-342.4" font-family="Times,serif" font-size="14.00">mix</text>
</g>
<!-- p25&#45;&gt;p28 -->
<g id="edge25" class="edge">
<title>p25&#45;&gt;p28</title>
<path fill="none" stroke="black" d="M184.69,-403.91C182.1,-395.69 175.58,-370.56 187.6,-356.6 199.58,-342.68 254.97,-338.08 281.01,-336.67"/>
<polygon fill="black" stroke="black" points="281.28,-340.16 291.11,-336.21 280.96,-333.17 281.28,-340.16"/>
<text text-anchor="middle" x="234.6" y="-360.4" font-family="Times,serif" font-size="14.00">ch_multiqc_files</text>
</g>
<!-- p24&#45;&gt;p25 -->
<g id="edge24" class="edge">
<title>p24&#45;&gt;p25</title>
<path fill="none" stroke="black" d="M222.78,-476.52C220.87,-470.46 215.83,-455.33 209.6,-443.6 204.98,-434.89 198.63,-425.72 193.62,-418.95"/>
<polygon fill="black" stroke="black" points="196.16,-416.51 187.3,-410.7 190.6,-420.77 196.16,-416.51"/>
</g>
<!-- p28&#45;&gt;p30 -->
<g id="edge28" class="edge">
<title>p28&#45;&gt;p30</title>
<path fill="none" stroke="black" d="M298.06,-333.39C325.25,-327.84 504.56,-291.19 555.26,-280.83"/>
<polygon fill="black" stroke="black" points="556.12,-284.22 565.21,-278.79 554.71,-277.37 556.12,-284.22"/>
<text text-anchor="middle" x="511.6" y="-302.4" font-family="Times,serif" font-size="14.00">ch_multiqc_files</text>
</g>
<!-- p26 -->
<g id="node29" class="node">
<title>p26</title>
<ellipse fill="black" stroke="black" cx="275.6" cy="-480.2" rx="3.6" ry="3.6"/>
</g>
<!-- p27 -->
<g id="node30" class="node">
<title>p27</title>
<ellipse fill="none" stroke="black" cx="275.6" cy="-407.6" rx="3.5" ry="3.5"/>
<text text-anchor="middle" x="242.1" y="-414.9" font-family="Times,serif" font-size="14.00">collectFile</text>
</g>
<!-- p26&#45;&gt;p27 -->
<g id="edge26" class="edge">
<title>p26&#45;&gt;p27</title>
<path fill="none" stroke="black" d="M275.6,-476.52C275.6,-467.61 275.6,-438.58 275.6,-421.49"/>
<polygon fill="black" stroke="black" points="279.1,-421.28 275.6,-411.28 272.1,-421.28 279.1,-421.28"/>
<text text-anchor="middle" x="342.1" y="-447.4" font-family="Times,serif" font-size="14.00">ch_workflow_summary</text>
</g>
<!-- p27&#45;&gt;p28 -->
<g id="edge27" class="edge">
<title>p27&#45;&gt;p28</title>
<path fill="none" stroke="black" d="M276.32,-403.92C278.74,-394.94 286.69,-365.47 291.26,-348.47"/>
<polygon fill="black" stroke="black" points="294.65,-349.35 293.88,-338.78 287.9,-347.52 294.65,-349.35"/>
</g>
<!-- p31 -->
<g id="node32" class="node">
<title>p31</title>
<ellipse fill="none" stroke="black" cx="646.6" cy="-219.1" rx="3.5" ry="3.5"/>
<text text-anchor="middle" x="624.1" y="-226.4" font-family="Times,serif" font-size="14.00">collect</text>
</g>
<!-- p30&#45;&gt;p31 -->
<g id="edge30" class="edge">
<title>p30&#45;&gt;p31</title>
<path fill="none" stroke="black" d="M571.2,-274.24C581.23,-267.03 617.84,-240.75 636.1,-227.64"/>
<polygon fill="black" stroke="black" points="638.15,-230.48 644.23,-221.8 634.06,-224.79 638.15,-230.48"/>
<text text-anchor="middle" x="664.6" y="-244.4" font-family="Times,serif" font-size="14.00">ch_multiqc_files</text>
</g>
<!-- p32 -->
<g id="node33" class="node">
<title>p32</title>
<ellipse fill="none" stroke="black" cx="663.6" cy="-160.6" rx="214.46" ry="18"/>
<text text-anchor="middle" x="663.6" y="-156.9" font-family="Times,serif" font-size="14.00">NFCORE_GEOTOFASTQ:GEOTOFASTQ:MULTIQC</text>
</g>
<!-- p31&#45;&gt;p32 -->
<g id="edge31" class="edge">
<title>p31&#45;&gt;p32</title>
<path fill="none" stroke="black" d="M647.33,-215.67C648.78,-210.85 652.17,-199.59 655.48,-188.59"/>
<polygon fill="black" stroke="black" points="658.91,-189.33 658.44,-178.74 652.21,-187.31 658.91,-189.33"/>
</g>
<!-- p35 -->
<g id="node34" class="node">
<title>p35</title>
<ellipse fill="none" stroke="black" cx="663.6" cy="-102.1" rx="3.5" ry="3.5"/>
<text text-anchor="middle" x="643.6" y="-109.4" font-family="Times,serif" font-size="14.00">toList</text>
</g>
<!-- p32&#45;&gt;p35 -->
<g id="edge32" class="edge">
<title>p32&#45;&gt;p35</title>
<path fill="none" stroke="black" d="M663.6,-142.34C663.6,-133.76 663.6,-123.57 663.6,-115.72"/>
<polygon fill="black" stroke="black" points="667.1,-115.66 663.6,-105.66 660.1,-115.66 667.1,-115.66"/>
</g>
<!-- p34 -->
<g id="node35" class="node">
<title>p34</title>
<ellipse fill="black" stroke="black" cx="688.6" cy="-102.1" rx="1.8" ry="1.8"/>
</g>
<!-- p32&#45;&gt;p34 -->
<g id="edge33" class="edge">
<title>p32&#45;&gt;p34</title>
<path fill="none" stroke="black" d="M671.24,-142.34C675.41,-132.91 680.44,-121.55 684,-113.49"/>
<polygon fill="black" stroke="black" points="687.31,-114.67 688.16,-104.1 680.91,-111.83 687.31,-114.67"/>
</g>
<!-- p33 -->
<g id="node36" class="node">
<title>p33</title>
<ellipse fill="black" stroke="black" cx="638.6" cy="-102.1" rx="1.8" ry="1.8"/>
</g>
<!-- p32&#45;&gt;p33 -->
<g id="edge34" class="edge">
<title>p32&#45;&gt;p33</title>
<path fill="none" stroke="black" d="M655.96,-142.34C651.79,-132.91 646.76,-121.55 643.2,-113.49"/>
<polygon fill="black" stroke="black" points="646.29,-111.83 639.04,-104.1 639.89,-114.67 646.29,-111.83"/>
</g>
<!-- p37 -->
<g id="node37" class="node">
<title>p37</title>
<ellipse fill="none" stroke="black" cx="836.6" cy="-102.1" rx="3.5" ry="3.5"/>
<text text-anchor="middle" x="810.1" y="-109.4" font-family="Times,serif" font-size="14.00">ifEmpty</text>
</g>
<!-- p32&#45;&gt;p37 -->
<g id="edge35" class="edge">
<title>p32&#45;&gt;p37</title>
<path fill="none" stroke="black" d="M714.1,-143.11C751.98,-130.74 801.06,-114.71 823.88,-107.25"/>
<polygon fill="black" stroke="black" points="825.01,-110.57 833.43,-104.13 822.84,-103.91 825.01,-110.57"/>
</g>
<!-- p36 -->
<g id="node38" class="node">
<title>p36</title>
<ellipse fill="black" stroke="black" cx="663.6" cy="-58.1" rx="1.8" ry="1.8"/>
</g>
<!-- p35&#45;&gt;p36 -->
<g id="edge36" class="edge">
<title>p35&#45;&gt;p36</title>
<path fill="none" stroke="black" d="M663.6,-98.34C663.6,-92.79 663.6,-79.96 663.6,-70.47"/>
<polygon fill="black" stroke="black" points="667.1,-70.4 663.6,-60.4 660.1,-70.4 667.1,-70.4"/>
</g>
<!-- p37&#45;&gt;p38 -->
<g id="edge37" class="edge">
<title>p37&#45;&gt;p38</title>
<path fill="none" stroke="black" d="M838.75,-99.3C845.12,-93.94 864.22,-77.9 876.27,-67.78"/>
<polygon fill="black" stroke="black" points="878.65,-70.35 884.05,-61.24 874.14,-64.99 878.65,-70.35"/>
</g>
<!-- p39 -->
<g id="node40" class="node">
<title>p39</title>
<ellipse fill="black" stroke="black" cx="886.6" cy="-1.8" rx="1.8" ry="1.8"/>
</g>
<!-- p38&#45;&gt;p39 -->
<g id="edge39" class="edge">
<title>p38&#45;&gt;p39</title>
<path fill="none" stroke="black" d="M886.6,-54.48C886.6,-47.26 886.6,-26.76 886.6,-13.85"/>
<polygon fill="black" stroke="black" points="890.1,-13.82 886.6,-3.82 883.1,-13.82 890.1,-13.82"/>
<text text-anchor="middle" x="948.1" y="-25.4" font-family="Times,serif" font-size="14.00">ch_software_versions</text>
</g>
</g>
</svg>
